<?xml version="1.0" standalone="no"?>
<!DOCTYPE svg PUBLIC "-//W3C//DTD SVG 20010904//EN"
 "http://www.w3.org/TR/2001/REC-SVG-20010904/DTD/svg10.dtd">
<svg version="1.0" xmlns="http://www.w3.org/2000/svg"
 width="200.000000pt" height="200.000000pt" viewBox="0 0 200.000000 200.000000"
 preserveAspectRatio="xMidYMid meet">
<metadata>
Created by potrace 1.11, written by Peter Selinger 2001-2013
</metadata>
<g transform="translate(0.000000,200.000000) scale(0.100000,-0.100000)"
fill="#000000" stroke="none">
<path d="M0 1000 l0 -1000 1000 0 1000 0 0 369 0 369 -26 6 c-19 5 -36 0 -63
-18 -42 -29 -50 -31 -85 -14 -35 16 -46 72 -19 99 16 17 24 18 51 8 23 -8 41
-8 66 1 26 8 41 8 56 0 l20 -11 0 596 0 595 -1000 0 -1000 0 0 -1000z m1208
-477 l25 -27 -27 -22 c-26 -23 -34 -48 -17 -58 4 -3 11 -23 15 -45 6 -42 44
-81 77 -81 11 0 19 -4 19 -10 0 -17 -44 -34 -109 -39 l-64 -6 -62 -75 c-37
-45 -69 -75 -81 -75 -17 0 -19 9 -19 96 -1 76 -5 102 -20 125 -11 17 -19 51
-22 90 -4 77 9 89 95 97 41 3 81 14 110 30 26 14 49 26 51 26 2 1 15 -11 29
-26z m-385 4 c13 13 19 14 31 3 23 -18 20 -28 -14 -49 -16 -10 -27 -20 -24
-23 3 -3 0 -9 -7 -13 -9 -6 -10 0 -7 20 5 22 1 30 -23 44 -37 21 -38 36 -1 17
26 -13 31 -13 45 1z m-22 -144 c-9 -16 -10 -15 -11 8 0 14 3 29 8 33 12 12 14
-22 3 -41z"/>
</g>
</svg>
